<mxfile host="65bd71144e" modified="2021-03-12T01:01:19.617Z" agent="5.0 (Windows NT 10.0; Win64; x64) AppleWebKit/537.36 (KHTML, like Gecko) Code/1.54.0 Chrome/87.0.4280.141 Electron/11.3.0 Safari/537.36" version="14.2.4" etag="KuHabSZ_0-Mc2xymrOup" type="embed">
    <diagram id="aSmyGZWSWAq7Zc-FoIMZ" name="Page-1">
        <mxGraphModel dx="524" dy="322" grid="1" gridSize="10" guides="1" tooltips="1" connect="1" arrows="1" fold="1" page="1" pageScale="1" pageWidth="827" pageHeight="1169" math="0" shadow="0">
            <root>
                <mxCell id="0"/>
                <mxCell id="1" parent="0"/>
                <mxCell id="8" style="edgeStyle=orthogonalEdgeStyle;rounded=0;orthogonalLoop=1;jettySize=auto;html=1;exitX=0.5;exitY=1;exitDx=0;exitDy=0;" edge="1" parent="1" source="11" target="13">
                    <mxGeometry relative="1" as="geometry">
                        <mxPoint x="118" y="170" as="sourcePoint"/>
                        <mxPoint x="230" y="260.43500000000006" as="targetPoint"/>
                    </mxGeometry>
                </mxCell>
                <mxCell id="5" style="edgeStyle=orthogonalEdgeStyle;rounded=0;orthogonalLoop=1;jettySize=auto;html=1;exitX=0.5;exitY=1;exitDx=0;exitDy=0;entryX=0.5;entryY=0;entryDx=0;entryDy=0;" edge="1" parent="1" source="3" target="11">
                    <mxGeometry relative="1" as="geometry">
                        <mxPoint x="118" y="120" as="targetPoint"/>
                        <Array as="points">
                            <mxPoint x="326" y="60"/>
                            <mxPoint x="326" y="80"/>
                            <mxPoint x="107" y="80"/>
                        </Array>
                    </mxGeometry>
                </mxCell>
                <mxCell id="3" value="" style="shape=image;verticalLabelPosition=bottom;labelBackgroundColor=#ffffff;verticalAlign=top;aspect=fixed;imageAspect=0;image=data:image/png,iVBORw0KGgoAAAANSUhEUgAAAJkAAAA0CAYAAACZ3pqKAAAFSElEQVR4Ae2b32sUVxTH909q6T/QN4lJKPigQYS8FreRghTxpaX1Rah9KqGRFJX6q4og0qKQmFQsJKstYmLxoShkiUFqk1R2VxeTTY58Zz3j2enMXieZm0zGb+ByZ+69c2fumc98z7n3bkql08PCRBt4ZWCpVhcm2sAnAyWfnbNvwgsGCBmV3LsnI2SEjJDR5e58l0slo5JRyahkVDLvXwEhI2SEjO7WyQBjMkLihGSz3oSQxUDWGBuX5siItIaGZH3PHpGenkwT+kTfuEdjfNz7S94sJJu9npAZyJb/eSarBw/K+r59mULVDVLca7VcluXFpcLCRsjeQFabmhbp72/DVS6LnD0rMjMjUq+3E45RhrqMlS3or69PapU7hQSNkNXqUr858dYtnjwpXf8A3ciIF9DgRmuVSuFA21LIJv5+KUfHVjuMeGmmKZ9fb3WU2RgA1+z6SeTjU93TJ+fX5eHTF4n92D7tMVxkqGBTU1356qhEW0+KtlnX+dvt3+WDDz+S499+F9jj/MVLgjI7bj2+9+Av2dWzO2iPa5LSwP4D8nh+PrYP7Ssp31LITtxeka8nV5zQWOjiwEQ/gFMHVV1sBKBuBDLEYAEsLgXrIOzNCa7xANpq+bNwbDpGVw6QFBCFS6/58fSZREAA2ffDP3TcLwrlwrN/A2BzDxkAGLzSCtQGxwAJcKghkAMcAGTLfEKGWeTawEA7zoqDyFUG1+khRsNkAC7c2sF1fPXaLwJgou0AyOEvjoQAWoVD20JBBnjUpQEyHMe5wDjIfLlLLCEESnTunAun5Hpc60HNmqOj/wMmCpA9t0qmigYXCYgAINpCiaBq9jrUF8JdAqpPr60FCcd2kK5jn0qGtaoAkNnZZIhcNbjWA2StoUOp7BRVMgCGZF2lBU7tXhglG55+Jb8+bAf4tx41E1VMlc2qmU/IwoXWRsOFUnI9XKYHyPBsCsK75HFKNnrqjFz4+XIYTyl4tr/CQIZBaXAOyI5Nds4w7aCjcVnuIQOgOYAsqmTWplqnua0rJGRwlwAOkwBVLs0RewEqawSc+4rJcu0uD6Vzl5ghQrk0HrMBPhQMdUiYCFj7ArJCxGQYlCpZNCbDeRplQ19wp1ksYRQp8EfsBaWC24SNrELpDFPrLGQAMFqOc5Rrux2zhLFRyBDPRdUtK8ga4zdlDfuUWIbYSFyGawYHM3eX63v3Sn1iMnzJ+rKTckAAlboxNhYCYyHDrBKLqdH1M/QX50LfK8igcnHraVlBBiNjczqIqXK0GNtK6SoBFGCB+kTdJQD88qtvAmUDPBY0wIdztLEAFwYyG5fZ2aQdbBQmrdNyQKjrbYjx0Ke2edccWzjS19cGLQ/bSr29srT8X6pxQMEAjHV9AA8AKWBqD7RR0KIwaRstVwUEuFjQjcKo7V35lm4ruR5mu+rx64dwOQOK1s11os7TdhKeoX73j1SAbZfN0tyXkOlPfSqVt4oGF4qVfCy0AiokHKPMQwwWuOve3kICBhgJmf3R4uKSYHN6q3+0GMRgKV1kGiXZ7raEzECmLwOb09g7xNZO6EYzXHBFnwAL90gzi9Tn22k5IYuBbKe9xLw/LyEjZN4nGoSMkBGyvLsCPp/7P9ypZFQyKhmVwq0UebcRlYxKRiXL+1fK53MrLZWMSkYlo1K4lSLvNqKSUcmoZHn/Svl8bqWlklHJqGRUCrdS5N1GVDIqGZUs718pn8+ttKU/7z8QJtrAJwOl6pOnwkQb+GSg9Lz+UphoA58MlF40V4SJNvDJQGlubk6YaIOsGKhWq/JkYUGWn9dC8XoN2JSvK5HDVlMAAAAASUVORK5CYII=;" vertex="1" parent="1">
                    <mxGeometry x="250" y="20" width="117.69" height="40" as="geometry"/>
                </mxCell>
                <mxCell id="12" style="edgeStyle=orthogonalEdgeStyle;rounded=0;orthogonalLoop=1;jettySize=auto;html=1;dashed=1;exitX=0.5;exitY=0;exitDx=0;exitDy=0;" edge="1" parent="1" source="13" target="11">
                    <mxGeometry relative="1" as="geometry">
                        <mxPoint x="366.5" y="170" as="sourcePoint"/>
                        <Array as="points">
                            <mxPoint x="385" y="135"/>
                        </Array>
                    </mxGeometry>
                </mxCell>
                <mxCell id="10" value="WATCH" style="text;html=1;align=center;verticalAlign=middle;resizable=0;points=[];autosize=1;" vertex="1" parent="1">
                    <mxGeometry x="10" y="80" width="60" height="20" as="geometry"/>
                </mxCell>
                <mxCell id="11" value="" style="shape=image;verticalLabelPosition=bottom;labelBackgroundColor=#ffffff;verticalAlign=top;aspect=fixed;imageAspect=0;image=data:image/png,iVBORw0KGgoAAAANSUhEUgAAAUQAAACWCAYAAACma/FWAAAYp0lEQVR4Ae1dy4ocSbKdH8neaKd9o08QQh+g3d1Wf8LQSOu5i+p9C8EFMVA9q24Jhh5EbdQIbiGK1kJCiID+Fx88PE6khaX5KzOemWdReGS4ubm5+bHj5h6RWX/77rvvHP/oA2KAGCAGvnN/oxMYCMQAMUAMBAyQEJkhc4dADBADHQZIiAwGBgMxQAyQELlN4jaJGCAGhhhghsjsgNkBMUAMMEMcrgxcKQ/9sXtw5W4+fnVvX+xWFzAPrm7c3YdX7tlufbYRS4dY2opPmCEyOzDJLpBh45qvb92LGUhnt3vort817q+//ur/vr59Ydu2e+Cubj62ct8mIkVPuB+bYE/Mjq0EOe0sJ+ijCBHBIsGL6+bbB/fqWVi1Idc039yHV88G4A6As7OPh9fvWrA3jV0vwYp+fWkFB2yw6iRQrICE7pgdsn3sOmar160DzY+7pi+MLTZ2aRN8WjKmXUc4ci6lrqmvdw+v3bumOfCP7jf46xBbWq72M+ZMz0+tHsqXE9FafHUSIWZJpt1yhVVWZxoxQgQxff33a3fz0Q6K0HYYCAgi3Q9II2trl6Ho9qdOVGyclt5aQmx1f/vgXv/znYuRF8avibb183/2i5e0x/KvrJ/6GnOZIyRgJTb2Y+zsF4OZMuNjbGSb6Yh2FkL8+vvv7p3KEmNEEYLBZ4ZhC2URlBWwPZBFhuqBA0I4N0LEeP24/qfd3g0XiHbsIHnlk1RA9SSzICGUEmI7xsJsMjVmWQe/WriTcryejpSW9O08hPj2H+35kCSlGCG2WVIXjLGMiYQIog8kGCP94Cc7y46BzvKtlAVZyblEfawOduy364fkDR2+hJ5chtjKgvRHInAS4nkSncRX6nomQnzhQlDszwT1ZwluBFsIjMPgsYIWQaeDKEYW2ilTZUbWOHXf+BxbAFAvS6k3FsQ1+qC7bZPIKHs/GTJWf95O+TS4t1XtGNC/L2sI0ctb/Up9Nde9fSMRbE3flF2ejE8iRKz4sgSZ+ckFGXmSwjXqZUADCJoAEXxoA7nQdvhE0tug5aQNVh30tXLGU06M65TtkzVO2a+8Lg1sK2h1P71M5MGU7BfXfZsMGYS+hgsV5qrEV8CCXrx6Oyq3wZY90FVblvqgVi/llye7kjk4iRCzJNM9VAHwZcDrAPbGtvUq87DuWQGArEIfsCP4sraOvPWC84Oth+StH3L04y8gMIwJfvVt9b0+sIU+yPREr3xdSmrQI32qFzOM3yqt9lIOcynHJ+v1da28bi8/j6lL6uU1CfEwSAVBakJEMMog8yCyyM+6F5PNBR+Aiv5LMhy0KSn1OFNt5IKRkrN0avstQoTOvu5IQvR69EKlP+u+QMKy1HPdt6nMEMcgseDT+d67xFhZrosoZ80QZSD+3//6F1/3Z4oAtQwYeS2DJ0aI0CEzi3MjRPhQ+kZey8wTQS794QMQOg6yabx/mNkytzpa0uoe6nTZ9WE/3ZsCYp7btt3CKOdUEoM1j7JeX8fwoOVKPtf2XaKTMusivdR8zEqI3pAAuG/u/3//z4AQcxmGDN5YAFj3z44QRZatJ1YHM8aus94YIXp9pVkqMlJPauG1n/3iBrvQvya+2P2+XWWGWGoz9KfK3jcFi0JKD+u2Q4JyruYnRPG1K2QzCC4duDBUE53+7OViQRa7D90oczZArrYMth6ShaWnJLCtsUOXNYYgP9wK9kGvtsxeT0o/+kHZynYvhmvS8zLwvVzMQNo+q7XatO0qCNEaM+w7pux9Q0IcfLPsGF9usc1JhCi3argegD+SzSAoekLMBAACCwGEIEefvrS+HugnBG2lLK4HtqaeMqstX81EB1vLCRG26dJvR/tgNYgMNlmkCtLQOuFPtG39VfFwCb6N+b7V180t+g4+D1tp2T8wATlZlujX23U5pprr3sckRBJiDXAou80tQcm81WSJJfqmkgHRy4Xt1L5IiOeL6xJsHJUhliimzHaB1RPNCZnxHPMfsuHh+5Cn9ktC3C5uT517356EyJ//MrdG/XY4sT0fA4DH6sCxyVhbZWnHVjJkaTOvxyFyEmIFIYIk5PlW7HqKQJ0b9O147+xfxJnbFtkfsjh5Binrx7j22Sfm9hzmcgyfXIIOEmIFIV4CIDjGcTIN+nGbfiQhkhDNLTMDepsBzXk7bd5IiCREEiIxQAx0GCAhMhgYDMQAMUBCPC215taE/iMGzg8DzBCZHTA7IAaIAWaIy61uT1/+4T7fXrvHM/x7T2Yxy81zre93j567N3e37vox/9d0re/Gkr+YDLEF26fGNc1nd3v9OLsiPnr+xn3q/i+vfx+ttF1uYjwZ5nTtnr50fzTNyaS52z11L/9oXHN/464qyNfb2I65sl1u7KX1S/dfamdOrtb/wFzzeRpSRAwsObc5ny1dT0I0tksA5v3NVZY4ayYQRJfTC7lUFlkSbCUylv1LE9KY/cOXOZ9bfjj13jH+h72puT/GLpBh7eJ4TF9bbnMxhFg6SbvdI/f8zSc39ipdExwIilQQl+grkSn1y1blSnw51diO9b9fEHK7iFqbwyJ/726uuB1P+Y6EqDLEY0GccrKvC4As266XBHGJnSUyObu3Xl/iy6nGeKz/j22XGgcJsews+ewJEQGB76U2TXqVnAKMtTphs5UhYjuJ8ehSZraDfv2B/af9P7vSupEZS32pbRt0S3mtMxWgum6q/lO+1Db4z9q/0p9aHkcr8IGWhY/kNlWOU8tL/SFLTGNVyueuSYgkxIPzvxjIAFwA2yolqHPg0/U4vykljJIghs0puyDz+e7OfRILQS5bhb0xQkS97DsE+vtRtmTQP0b/Jb708wVfSZLq7wnfBdnuWEU9oPN93Yq3B/r23cMpSYY5LJTarbEW+0xCJCEWE6IEkQaxrDv2OoC7bLvs+wAhpIKmxM5eRgd0ly3mCCda3z0FT9l3rK/k+Mfov5RYYoSBuZC2lOrs/d8Sok2iMT9Z/cZkS+7HxlfS9pJkzn7LLCczliFKmSGIxzmAzmVksn9/jWBIEU6JnTEZ6JdBLm0orfeZdMpGqbPmesz+S8gLmZvMeGGvVdfiqODVmL3/f3Wv/YM6tTChD6vct617ZWpqXZb+c7pHQpzhocq5EaIPAASsPF4YixxzhFjTfxkhxt/X7AmxI0D9OUUG2kdzEyL8WNNvajyXUEdCnIEQQ1DWbpnT8gg2K6sBcGMyCJRjM0ToR4l+PDnGdEK2pMzZp3Wk+i8jxG47a7yIDt3w8zGE2LbtjinkGaUeh/xc6wPZVl/rMeh6ft6fL5IQ5yDEzJndMYAsAXlMJhdsuXrL3lhfkA1ZclP0fueY/ZcQorcxdpwCW2T2W5rxa59AVwkpltoN/+bKYPN4T61z/W21noQ4ByFWfoWuJw8jY5FAC0EczyR1QKItAjOWzeXqvX134mmq15sKYGRVPoMseeF4zP5TdsEfrf1GBtf7T50X9vfVmaDvK/WUWfopR4oxgpY211yTEPdZYMpvZ0+IHljynEteW6DswZ4ho5RTrboAyDh5yTalhOjb6PHJMcXGYhEO7kn/yGuZIZn9qldQ5Hj8dT8mRS6Qm6p/EKIcC66xDe5t6BYu1Psytmj4Nge+V5iJ+b/3hSJUbYe2D/XHlKFPZog53509IeYcMFd9LDjm6p/9lGUIa/BTyA7LFs9Se0mIZfNPQlRb5lKAHSOHzCCVdRyjl23KwL4FPyGjHRsjJMQyjJAQZyREH5DYZukt6BaClTaWBdWxfsKxwZhbZdgC3WMTLfSfS0lCnJkQPXCevrx172/+zh+IXcD3aw7cNouLnLGOYTeyT382OgXpjmHj0jpIiAzKg684Lg1K9j9tJkr/xv1LQiQhkhCJAWKgwwAJkcHAYCAGiAESYjxt5paCviEGLhMDzBCZHTA7IAaIAWaIl7kCMvPhvBMDcQwwQ2R2wOyAGCAGmCHGV4m1r6BPfrp1X5o/3W8/fl8M5N2Tn9ztF/9/qevajeWL3Q+/uPvG9//e/fxknB/eHcu2Wj3H+L+2D8ovE5/MEFeWHZQEW4mMDqhzIsTd7gf3y33jmvc/uye7+cn1GP/r+Zjz89bsndM3ui8S4oUQop74LX8mIdZlTyTEcn+REEmIxdvutZAoCbE8wP2ckRDL/UVCXAEhYjsrf4dPX7//+UlPXBLgP/xy3//eY/Pnb+7H74dbSJzdQV/uDC/o3v//ZktnDTHW6pPjab9za2yLawnx0Afxc1Tohr98KX0fIxjZh5av8ddYsrWYgry3XY7Fj//P335033dHE7vdE/fT7RencQG/WccYNRjo9S901kxCXAEhyiCQZCfvy2vI3N196cGaAiTaerJJEWKoH5KFD473IiCgq7bsgW6QttfV16tA8GO9FYtBkC0/Q7TGBNLVxAUikEEd7LodPAiC//FQq28XGVutr8aW1/Za+kGI7SIk5iC0bfpFoZ8nNdYY/rT/+/aiD2kPfGktRFJuqmsS4mYJsenJEOAI4Is/xU3V90BVQIfuU8uc/lhAWf2WyiLID4jPyHJy9kk7JMEggCWJStnSa5C0JwLrT2ZppTohJ+3FPV3CVweZX/d2AvqP+cmaE+g88H+nU9/3NvV6IoSp7R77Mwlxs4Q4zOQ8MFKEV1rfZggTkGIskABo1Lf9G9tkyPmyD5qMXCACe4HQdbHglf3iuieY17+2rxKBLFC/trK3N/GaFsafGwvm6YA4jSf/2sfwS+n8QX7OkoRIQuzPJj3wAojHO0MEmGOBhHqUOlOyMq/SgEotEJokkOlZWQtsQ6l9lCMRtFuq1GO17JiCEPVc6szXmlvLtjnvkRBJiANClOBD4KfOHaV86rqUEKUOBFRJNiLb4TrYb2eImizrCTFk6LCxhEhhl1VCjyYNfD6FdJcixJT/LR+s4R4JkYQYJUQP0FQwIVPzQZsjhGMI0fevicvfQ7+5DCNGcr0tYstdqtPyCcgs5wPfdom/1BzCnpMzRHwTSfq0u1fjF8xNCaZg+5glCXEhkMYmEcBMBXsM4BZ5yH5S9YEQhtkUwKkzNOgE4Xjwpuz18lld/qD9bvjaUIykYvdhF8q+T/V1xeCHwzPY4Nfhw6qgI/OUuXtIs1QQY7yxsgRTkCnJRDX+YjiI+T9mp78PO1pMTXCWnerb15EQV0aIGhQeGDrQNCAxyRbh+XvQoUtNdBKMkE0RHYhJ2wd7EBDQpUutWwYWZK0Alf1CDqW1vdc+0OOGvZbvre9+W/6XNlk2yz6WuLbmVmZuqC+1Xfo0+Lx7P1FkiBgnFhrMkS8tv2p5ay4hM1VJQlwhIU412dS7zJaVfq/zOxZGvWDO4UcSIglxkXOtOcDNPuqIaA3+wq4ilUFOaScJkYRIQiQGVoEBbMNTRxpTkqHXTUJkMKwiGKYGOvVvL1tcYs5IiCREEiIxQAx0GCAhMhgYDMQAMUBC5BZiiS0J+yTu1owBZojMDpgdEAPEADNErtRrXqlpG/G5BAaYITI7YHZADBADzBC5Ai+xArNP4m7NGGCGyOyA2cEZYKD9vrDxPeKlySd88+Su6n+IL2kzCXGDwWD9uEAORPjy/lJficrZt6V6/42K0h8e0D9sMMW3MNCH/LGGKf2J7xrjxxpSvtga7kiIKyPEErIrkdEBsTVgavvX9LmGEGF3/x3dkX/SCvNa+is1sGesssQX+CWgKRaDscYBPSTECyFETDjL08/wSkhA+3kKQpxCp7Y797nUF8gqlyLu3DhQT0IkIfIMsRIDpSSAIPPlFOQFkplrqyzHg+saX9TIQv/cJQmxMhimmCBse3AmY5US9HLL7EEGeWtLgqDpZTL/3hHnUb38CFu8WhtKfIxtGOz0pfSR1wGZNivpfs4e8lo2yIcfOYWMLy2f7gN7KJ/6/b5SQpTz2fYfeVCS09fXG/Mdq4O/BuOP9I852vtil11YgQPL99AXsw31U5ckxBUQopxkSXbyvryGzBb+UT0IVgZBCKLDn/CXY0xdYwGRBIRgk1syGeDy4B/+wz+a932FQBw+De37UYtCa/+fd+7ui/gH7t3/GpY2yTH0ga50QaavFwQG+y1SRp0cL3ShtHzv6zAu2TboU/9Cwvg/KdCNsooQjX9VCj0oMY+elCVmUD91SULcLCEO//eHB0oOnKn6PiAjAXsMEGNBG7tf2kcgpOH/X+nHL+xHP5IMvZxFCLG+A6kMicL3bwWsJQu9Of8GIjhcJKL3E//sfd/nD+6X++bg/91YCwLa6DLma8ilMAUZlDkfeLnYnEHH1CUJcbOEeBg8OXCW1LfbNEEqpwAwGszdP2WyMp9cfwgYmd2gjQ50yOqsrZ4Qh76O+TE2Xm9fjgxanYbfY7aGvvYZKnygS21rb0dmKww9uj3uo8zVQw5lrTzazVWSEEmIg7OfQCrj/KN6rUueTR1LvCAIrQuf5XuWtYQY0y11+sCMBXWKpHoiskhP/Nc+jEOXegFI9SXJA2PC9lN/Hsiqc1bYoDNs2SbmCykjr2vlZds5rkmIJMQBIUrQgdBSASHl9XUqY9KypZ9BcpogrPaQLckQQTBaVmedvp9YUFuysCtFiL1OgyzRXpcpYpOyfb9dRtjaaPSDudZ+jY0VfeTqIefL3hajfym35DUJkYQYJUQPzHSQhzMqn0kgA5FgRtDqIJMytdc1QVVDiLFxWvdjJNDejwR7zm6rn5RvYmOz2gTd/hw0zJc1H8kxiQc9Wn+snZbzn0tshp9imLL0jnmPhLgyQgSJ6ExFTnoseHLgTNUHsA4fHgCcsbM+ZFUevDF7fZ9jgxv9xvqEr2IBCB9LYgg+HT6ogu0lW2a0txYGb0/Wl3gCmyAfjKtE31A2EOH7f712t1+Gcww5jBX2w952bhM2pTAF3Sgxb+gD92WJuWn7jSwuUn7saxLiygjRT7AEhQeGJpQaQgTQoUeWmuisflOkA8LR9mmQIhBk37k2Wof+LPuWeqW9kJH3pH8lIfr72ldtfXuuNnyoYo3HOlaQpCJtxLW2y7LBy1q623F0Z34pgvFyUq/VZ6vLOMf0egPWhiSq/YTxtLYmSKyUPLG4xMaNMU1RkhBXSIhTTDR1nv6VvbX5EISrF7a12entwSKiFyHLVsjGyNtqM9Y9EiIJMXmGOBbQqGcaQl6SPErntM/UE9kjdPUk3wyzctRPXZIQSYgkxI1jAFvMkuxrakLR+vcEN9x2azn/GVvxJTNeEuLGg8EC1pbuIWDkOVTseokt1FZ86Unx7rcf3fe7/HeK5xxTOJdeJts7ZpwkRBIiM0RigBjoMEBCZDAwGIgBYoCEOM0h9zFpOttwLoiBdWCAGSKzA2YHxAAxwAxxHSsSMwPOAzGwHgwwQ2R2wOyAGCAGmCGuZ1VihsC5IAbWgYGzzxB3j567N5/C7/s19zfuamXvaTEQ1hEInAfOg8fA2RMigA5iJCkS+MAES2JBY+BiCNEP/NHzN+5Tc+9urtb1Nr+eFH5moBIDy2CAhMgDdR6oEwPEwCU+VGGGuMyqy2yHft8KBpghMjtgdkAMEAPMELlqb2XVpp3E6lwYuKgMEU+aP99eu8d8/YZZATNDYkBh4KIIEatMOEtsHF/BYeYBTLAkFjwGLooQmSES9CQ+YiCFgYsiRD5lZjCkgoF1xAcJUZ0hMCgYFMTA5WKAhEhC5ME6MUAMdBggITIYGAzEADFAQrzcbQG3hJx7YsDGwMVkiLvdU/fyD75qw0CwA4F+oV88Bs6eEPGqjf9fv83nW3f9mL90w+Bn8BMDNgbOnhA58fbE0y/0CzFwiAESIg/UeaBODBADl/hQhSvi4YpIn9AnxMAeA8wQmR0wOyAGiAFmiPtVgSskfUEMEAMeA8wQmR0wOyAGiAFmiFwRmRURA8TAEANHZYi73QN3dfPRte/2NV/d2xd8t4/AGgKL/qA/toiBowgRAwUxNiRFbjm47SQGzgADJxGiJ8bdgyt387FxX9++ICDOABBY7Fgyw7tEDJAQSWJcyIgBYqDDAAmRwcBgIAaIARIit0SXuCXimIn7FAaYITI7YHZADBADo2WI3Ss4zbcP7tUzvn6TWn1Yx+yEGFg3Bk7OEDHBeNrMV3DWPeGYL5acJ2LgEAMnE2L/LiIzRG47uPUkBjaOgdMJsfA9xN3Da/euaRwzyMNViSs1fUIMrAMDsxHig6sb97Fp2q/7ffvwyj3b8byRQbCOIOA8cB6AgdkIcbd76K7fkRDheJYMQmJgfRiYjRD95D+8ftdmiPya3/qAwODknBADI/weIp4u50gOcs3Xt+4Ft8s8fN/44TvJ4zwXkJMzRJ/1pR6UgAj9T4XlSJMgO0+QcV45r1vBwFGEiFdtwu8hfnMfXj1jxsOMhxggBjaPgaMIcStsTzuZmRADxEANBkiIXNU3v6rXAJ6yJMgUBkiIJEQSIjFADHQYICEyGBgMxAAxQELk1iG1dWAd8XGJGPgvtwLENaMIdf4AAAAASUVORK5CYII=;" vertex="1" parent="1">
                    <mxGeometry x="10" y="100" width="151.2" height="70" as="geometry"/>
                </mxCell>
                <mxCell id="13" value="" style="shape=image;verticalLabelPosition=bottom;labelBackgroundColor=#ffffff;verticalAlign=top;aspect=fixed;imageAspect=0;image=data:image/png,iVBORw0KGgoAAAANSUhEUgAAAoAAAAG5CAYAAAAeUIXbAAAgAElEQVR4Ae296/Mk1X2nyYuxJyZiwxOzl/GMHAnbQm7JgC3EXZexwBLCrfvgBiRLu97hMrDYZtYrgycw2FJIltkOWhaSxaVpjY0kEMxYwo0Z0Uxrd2hzaXW0xAraDZ0R/WIj9g/Y2DfzxhF7Nk5mffL3rVPn5KUqqyqr8nnxi6xf1slzfTLPk+eczDrr7LPPdvxRBzAAAzAAAzAAAzAwHgbOorHH09i0NW0NAzAAAzAAAzDgGUAAGQFlBBgGYAAGYAAGYGBkDCCAI2tw7vy484MBGIABGIABGEAAEUDu+mAABmAABmAABkbGAAI4sgbnro+7PhiAARiAARiAAQRw4AKYnXure+L4KXfo3oy7s6Ct3nbbE+7Yi4+6GzLqhos5F3MYgAEYgIEuDCCARiqy8+53z+e5O3Xo3kbZKsUsd2fOnCn+8vxN9+KjNzQe16VxlEZ+6pC7d2CSc/kD/5f7Rv7/uM/deWljmbM7fuz+LP97d/DM/1f8Hcj/b3fjry0ubbc9cbyo+zeXJIFeMI/nZRufOnRPYzm7tC1huVDDAAzAAAyskwEEcE4BtI127q1eFPoVwCw71936xHGXv/mie/SGWVnKPnbI/fHf7UiV5MpvD/z4/3Qfu3D2GJvnRT93EUCb1oef+n9dXwLo471g/xG3DPmW/CF+XKAtv3yGBxiAgW1hAAEcqAA2SaUE8Ct/td+9fQ2jg0MRwCy7wO0/kidFeZ4TNcve5vzooh95vWcNdTtPnjmGTgkGYAAGYKALAwjgAAUwy85z9z+fFwKSmvpFAHdO9OyC/e5IMXXfzzQtArhTt10uJoSl3mAABmBgcxhYSAA1Tal1cH7bx3qscvTLrK+LTIOWYfzDEeVUqfKQnDKdrO9TOL8N1/rZNYA2D3le/xBG02idPyEUt9Kvi7NVfJMp4KYRwCz7jPuffvhf3IEX/qN7VzBtnDrWT9NOTSlH1uzZEUAbvmn6uc0UsI2vmNL2ea8ZiatGAXsasUMAN+cCRmdDW8EADMDAfAzMLYDVKJWRsz4eWjjv/uen1nRJMkNhsoIm6azyFDw0UchXsM+nE0pgKWlvumPHyuk/P/qWSt8C1yRsyqsVzrCcNr7iO1Ov9jt9bjsCKAEsRMo8tKEHM77wjY9OPdzg5cvuy7I/cf/Lq38/s25PArjv2H9xEskqbM0axDoBVF7tGsE2cfo6KdcCnnKH7ll87SMCON/FRGyypf5gAAZgYPgMzC2ApdTMjoyl9reBQQJpRckfF9svqZL8Kf5SrGbzpe+1lSza4zVKFz51G0tf8fhtmZf4QyCxdPwx6f2Thz8CYbXpFccHo3l2xE5CVqYzGQE08lfun4hdw+haEbZ4inf6id9SAP++kj8fLhVW3/ltrQBG0mkTpw9TPrQRbwObfpvPCODwL1xt2pEwtCMMwAAMpBmYSwCrUbGIpEiiQolr0wgpeZQsWTFLSVdXAbRxpvKu9K0s2vKk8uLDaFQxfEVMVYfBSJ/Ssvmyaelz1xHAcGq2GllrLYB/PzUyqBHA8DUwypcdRVSe/bZOAIvvIqOHitOKrY3Tf+5zHWCfcYX55P/0xYi6oW5gAAZgYHUMzCmA5UMKWs8W284jgF7eYnFpn5WilHSlBDAVt42zSQBtWAtpKi8+TPndznpGlUXbcM3iugVQYmhHFPXZSl2TAKZkLSWAmv5VWrFtKk5fz31Im1794tuZp39XdxGy5xKfqXcYgAEYWA0Dcwpgu2nKro1YylLz9K2PNyVdoQBWI23Be/piopUUwOLXOPLkAy6pvPh8pkYAU3VT5TcyumqPaTMqVqSvh0CCkTWJXvFwyOQBC8U5M1o4eZFzKwGMhLX5TgmgD5MaAbTHpz73OgXc81PFqTyzfzUXOeqZeoYBGICBWQbmEkBfkaFo9VG5KQGLxZ2SrjBfMdHz8cX2p9JvkrhUXop0GuQxVrawDLEwkrW6UbGynJM1gG0EMCFvsQdGUiOA5f70L33UCWAqzlj5w308BDJ7cod1xP/UEQzAAAzAgBiYWwD1YEQ4hamI59lWo1/BaF0srpR0hfJUiZ55lYvy7qdh7bRuTAAV1oYL85PKi8L5PPm02k6LN8Xn412mANpRwVLKyl8caRoBlCjWSWmdAFajkpHXzqguY1teA8MFLcYF++ACBmAABtIMzC2AvlIlbFrPpu2iUlgK0PS6ufDnvlKSFApgkc/JKFyVv0IGZ6exJYsKp21M3GJ5VPjwlTVFHiLvIfThY3ErH3XSKQGMrZWzU7haW2f3lW0XfwrYCp+P274/0ApgLP0DwZPGPh3/56Uvls8i/mBkMhXevhpG8Wrbx/o/xeW3PAWcvmDYeuIz9QQDMAADm8vAQgJIwy+v4VOCS51P13k1+hc8Tb1IPSGA03W8SF1yLHUJAzAAA8NkAAE0PwU3JEirUUAzdT2k/A0lL+Xav37e/6cyIYDDvFipfdjSPjAAAzCwOAMI4EAF0MNdrT/scXRrm04avbbl1KF+fgPY1k2fTxXbePm8+EWLOqQOYQAGYGBxBpYqgHqoQmvjUttwfR8Nu9OwhQQee9E9esPiP3G2bfV62xPHk6/m6aOsfnRRzC5DMvvII3HsnCvUBXUBAzAAA+0ZWKoA0hDtG4K6oq5gAAZgAAZgAAZWxQACOOAp4FVBQDpccGAABmAABmBgXAwggAhg8aoWTvxxnfi0N+0NAzAAA+NmAAFEABFAGIABGIABGICBkTGAAI6swbnjG/cdH+1P+8MADMAADHgGEEAEkLs+GIABGIABGICBkTGAAI6swbnz484PBmAABmAABmBgtAKY/fL57spH9rh/+eVfcW/L6t+x99YbLnef+M7V7uobz+UOCWGGARiAARiAARjYeAZGK4Cl1P2ae9+H6+Uvy3a5d/7RB9x1D17izm8QRe6ouKOCARiAARiAARjYBAZGKYBZdq674ivtRv+yd7/L/Tqjfxt/p7MJJyN5pNOAARiAARhYFQPjFMAOUrf7d97vrjv4XnfJ5fUjhatqMNLh4gADMAADMAADMLAoA6MTwC5Tulon+PE7384IGOs9YAAGYAAGYAAGtoaB8Qng5OGPNlLXdp3gohbO8dzJwQAMwAAMwAAMrJKB0Qlg2yndLusEV9lgpMUFAgZgAAZgAAZgYFEGRiWAmtLl1S+cOIueOBwPQzAAAzAAA5vMwKgEsO2Ubpd1gpvc+OSdixcMwAAMwAAMjJOB0QigpnTbvM+vfPXLHtdmnSAnzjhPHNqddocBGIABGNhkBsYjgEt69YvE8oYnPtwojBLL677T/AJqv1bRx9kkrJrWvq7FuwrLEdA9ja+10QioT79purxL+pt8opB3LvQwAAMwAAPbxMAoBFBC0+Z9fhKaJvERBJK6NrImqWuSRSuVTbIoqWuSNdVBkc8GWVQdFGEb3oHYNn3VF1suoDAAAzAAAzCwfgbGIYBLfPWLlbWmKWPJYpPU+RNDssgI4PpPEi5UtAEMwAAMwMC2MTAKAeTVL5y423biUh6YhgEYgAEYWISBrRdATWe2mdItpzOvdlffeO7WvOl7ETg4losLDMAADMAADGwnA1svgIC7neDSrrQrDMAADMAADMzPAALI7xoy2gkDMAADMAADMDAyBhDAkTU4d0vz3y1Rd9QdDMAADMDAtjCAACKA3PXBAAzAAAzAAAyMjAEEcGQNvi13LpSDu3AYgAEYgAEYmJ8BBBAB5K4PBmAABmAABmBgZAwggCNrcO6W5r9bou6oOxiAARiAgW1hAAFEALnrgwEYgAEYgAEYGBkDCODIGnxb7lwoB3fhMAADMAADMDA/AwjgCAXwtu+ecGfOnHH5Cw+7PVk2qru+7Lw73JMn8rL8r33f3TWy8nOxnP9iSd1RdzAAA9vEAAKIAI5GACV/OeI3mjbfpos1ZUE+YAAG+mQAARyhAPYJ0CbFdd4dT7oT+Wvu+3eNa9Rzk9qIvNLBwQAMwMBqGEAAEcDRjAYhgKu5qHDxpp5hAAZgYPgMbL0AvvXap9zHD5x0H/vdm2ZEJ/Xd7puPuOsPvlH97T3wsnvf1dOjRtn5f+Cu/LMy3uyyr7trDpyswn/y3i+7t61gbVmW3ea+O1nP5tf0pdb1ac2fwmj7k6fvdpdG8hmGz/MX3MN7dsqvdPP8J+7puy+dqlcdO8T1hQjg8C9IdBq0EQzAAAyshoGtF0CJ2t79f+nON7KTZZe5d955zO392rPu4kt25MbLn5XFLPt1d/mXTrpQAhWvF0X7XUoq+wa6lLBAzG77rjuR540Pd2R79rsjJ3MXE0AvcC88vKeSuh3ZC9KayKeVw6xl+n3XRdv4EMDVXFTatgfhaA8YgAEYWB8DWy+AHi4vdVbS/D4JXJvRunKE78fug5+9ekeMJiOAoUB2iXcZ4HuBy3/ytLv70h2pDdOpE8AwbFFXhdjNjvZNC185GtmUdiz+Io3sHPeJP37MPfvss8m/p/ffUtV/Kp66/Qjg+i40de3Cd7QLDMAADKyegVEIoKZo7cheOVI3O7UbgzB2/LpFL5ZPv68QwGDKNgw7nwDmUyODinPP/iPuZD55rUpDujpmHdssu9R99UjueAJ49ReZdbQ3adLOMAADMFDPwDgEUNO9k2ngavo3mBb2sGjK164B1GcrkEMQQI3AaU2ftnZaNnYC1AmgpnwVl93aqWHFm2V73P4jJ4v1h7HvFW5d2+rVLzz9u9Do6braj3TrL+DUD/UDAzAwLwOjEEBfOXbEr5S36SldH0ZSNzOtO3nIY0gCqJG3cB3fIiOAEsNwGleiGRO8Mh8/cceOnXSxh0LagpkteQqYEUAukm1ZJByswAAMjIGB0Qig5M5LXLEmMHj4wzd2bKo3tV/xtVlDuAyQUqKX2m/zINEL5TElek37y3gmawAHPA3MGkAu6vY84DM8wAAMjJmB0Qigb+RC/PY/5d5z57GpJ30FgATQPjGsp3r9NPCQRgC96PnpWY3K2anYeaeAJXr2FS4aabRp+fqSRNrRwtjxqtshbBFALvZD4JA8wCEMwMAQGBiVAFaCF3mvnxrDCl/xihe/TtC880/h1j0CaIVP6/S8DJbCNv3KFuVZW8lbOALov7fC5+MtZHDy2phKNif/x6Z8JaZWIpXuurcIIBfddTNI+jAIAzAwFAZGJYBDqfR156NOANedt2WmjwBy4V0mX8QNXzAAA5vEAAI4wp+C01StRvQ2CdhF8ooAcnFehB+OhR8YgIFtYgAB3HIBLEb7jjzs9kx+BUWvebFr97YJ6Lqy6JUwp44+6K41vwpTdwzfccGHARiAARjYRgYQwIEIoNbOaT1fajuPuGnET3EOcX3eqk6u7NKvuiN6cfVr33d3IYK8H3Ag14BVnQOkg8zAAAx4BhBALv4IAAzAAAzAAAzAwMgYQABH1uDc+XHnBwMwAAMwAAMwgAAigNz1wQAMwAAMwAAMjIwBBHBkDc5dH3d9MAADMAADMAADCCACyF0fDMAADMAADMDAyBhAAEfW4Nz1cdcHAzAAAzAAAzCAACKA3PXBAAzAAAzAAAyMjAEEcAMa/Bdvfq+79jsfcFfe8N/XnqBZdq675MtXu+sevtxdeH5WG5a7P+7+YAAGYAAGYGC8DCCAAxfASur2v8v9YsNLi7Mr3uk++M09bs9vn4v8DbxdueiO96JL29P2MAADQ2AAARy4KGQfucR9vMXon4fpgrt+jdG/gbfnEE568kDnAwMwAAMwgAAOXBjaSl2Wvd39i4f2uI/fc77b1TBSyInPiQ8DMAADMAAD42YAARywAHaZ0i3XCf6qu/wK1v5xURv3RY32p/1hAAZgoJkBBHDAAthW6rqsE+SkaD4pqCPqCAZgAAZgYNsZQAAHKoBdpnS7rBPcdqApHxdtGIABGIABGGhmAAEcqADy6pdmeDnBqSMYgAEYgAEYmI8BBHCAAthlSrfLOkFOkvlOEuqNeoMBGIABGNg2BhDAIQpg8eqXdu/zK54S/g4Pf2zbiUl56GxgAAZgAAaWyQACOEABXNarX8q1gnvcdS2E0efhhic+7K5reAG11ir6sE0voC6ntfc0vqtQI6A+zqbX2mgE9LoW70pcd/rLPJGJm44CBmAABmCgCwMI4MAEUELTJD6+kduuExQQkromWbNS1ySLksomWbRS1yRrqoMizoaftZPUNcniutNXG7DlAg0DMAADMDAEBhDAgQlgKTTNU7oSmqYROguZZK1J6vwxksWm+K0sMgJY/1vNti34TAcAAzAAAzCwTgYQwAEJoGSqzegfr37hwrHOCwdpwx8MwAAMbDYDCOCABLDtlG41+tcwPcrJudknJ+1H+8EADMAADCyLAQRwQAK4rEYmXi4gMAADMAADMAADlgEEEAF0Fgg+c4GAARiAARiAge1nAAFEABFAGIABGIABGICBkTGAAI6swbmr2/67OtqYNoYBGIABGGhiAAFEALnrgwEYgAEYgAEYGBkDCODIGrzpjoDvuWuEARiAARiAge1nAAFEALnrgwEYgAEYgAEYGBkDCODIGpy7uu2/q6ONaWMYgAEYgIEmBhBABJC7PhiAARiAARiAgZExgACOrMGb7gj4fjPvGrPsHHfjt3/k3vybLwzuIp5l17oHjx5zT91x3uDyBu+byTvtRrvBwOIMIIAIIJ3yhjMg+cvzN93ffCEbXHtm1z7ojp7KXZ6fWIoEloJ5yp05c8bl+RH3wGXDqwM6q8U7K+qQOoSBfhlAADe88+eE6PeE2MT6POfGb7sf5afdK9/8zODkT/WZZXe5772Wu/zEU+6O8/oTNMkf4sd5INbYwgIMtGMAAUQABysNnMTNJ3F2zo3u2z/K3elXvuk+k/UnVsuo++yu77nX8tydeOoOd15PedXo4pEHLoNjrmUwAAMw0IEBBLBDZS2jUyTOZsmhjtJ1dO59z7mhTv3G2u2u773W6zQtAphmI1b/7KO+YAAGxAACOEABvOCOl931B9+o/vYeOOIui6xryrJr3CX3/qQK54/52O/f6XaZ0ZVf/Oyz7l8eOOl+/eZrZu6Mwu+yy+5zH/x6GVbf+Tj3HviRe/8nL5k53kOkY5TfurCCrm6r9Wx+PZf+wtEthclPv+K++ZmdUa8sO9fd91zu8jf/xn3B1EGRz8lDEorTb8N4lS+NqilsnphebRvOx+tFTfH5bSyPZT7LMtiwqQc7lH6qHGV8/8J96P7/3d3+5/e7X84+5a59+Ki7/bHJ34FvuSt/eaf+psIrzGNH3b/+8r9xvxjUZxH2snvcZw+a+B77T+5T/8NFUU58+OKYyShgXyN2CCCdmdhiCwsw0I0BBHBgAujlz8palt3i3rf/pAslsNr/lX/v3mnWVF1wx5EpWZOg7f3S16c6ccnjXnO8whbSZ/b7PIXp+xNNkmils8jXF6fz1PakrAQuELtz7/vB1Pq2rgIoUQqFMYzX57NcTzc9pVrk6weBbJ57n3sunw6nY62wVXkNHtDwYY8FT+xW+TQCWx5/LPpwR1bkoX7tX5ZNBHAidP/q9z9YipjkrRDDUgIzCaIRwywSztdT9uGH3M2BHBbHf21WKm37V2sBjzzgLotIpQ3b5jMC2O2C36ZOCUOdwsA4GEAAByaAsRMv+9Bj7mPBKJxkzcpX7Fi/LyZwOn5KNicjgFYK/fFl+tOjiJWABmKZykOb/RKguhGtIj+T0bxQ6CqBNALlw7edJk0dH+a9krogndj+tnEW5ZpIpRXIMG37fymc9U/+7gjg9Ohctd/I3vm3/nt322PPuI+9b3pUMLa/3Dcdp81b6nP10EZPD4MggOPoqFI8sZ/2h4H5GUAAN0YA4wIWm/YNT4iYwNVJYSiVseNjUhqm2/V/yZKf/qyTwEq0gpFCHW+nV7WvLj7ls82Img8rUY2JWiibymvdtG+V/uSBDh82FrfCaRumpf12GxM9+70+V+HMiGD13WS0T6OHfr9GAG9vMe2reLTtcx1gn3Epf2zn71CoO+oOBjaHAQRwYAKokTWtqbNbO1rnTzJN49owobzZcBrZUxphWI0KzuwvRiCnBbSc/k2vDZz3ImCFSevgQnlTmDYjgJK1MI5Y/soRtfop1aI+JyN1yl+4jT2UsYw1gP0KYLA+0KwB1JpBK4BFPWh6uArbbkRwUWnTKKKv977WEsZ4YN/mdGS0FW0FA90ZQAAHJIASMImagI6NwOk7ba0Mhuv9fBgrbKnRO6W/TgFUefxWouc7+ulRvfJXL9YmgJORujajdLY8+iwZDPOv77XV6KUvf0xgO00Bm6lexW+3dSOANlzqc7VW8LGjLhRFe4zkra/3AS4qkzZvfO7egVBn1BkMbC4DCOCQBDAy0uZPrjYCWISbPBUcCmT5XfkwiZe7d/qHOiJr97oIYCps3xcDSaCVpdi+ooyTkbk2shjLZ9vRQomZTScWX92+NqN3RZnqnmxusWawErsGAfRpXXbPc+72yBrAunLY7ySBqaeGy/JMXgjNQyC1T0vbeuXz5nawtB1tN2QGEMABCqCVMz1p66d57RRwIYWBxDVJmV/35+NJvaoldXxKQBXfVL78U8vzPgXshSZ8sCLxouNwurZcv5eXPwcWxhERQ39Sxp4C1uicHd0rhC94CrhMf/op4NiJXkjlseAJ4oTU+TiPBS90VrlsfpROG2HtIoASuNtbymI40tfmwRC9DLqvqVseAqGD1fnAFhZgoBsDCOCABNDDa4WvkDUveeb9fBbwMGwoiTas/yzBi40Q2u/bTAErbsmhT7uUy/g7CxW+aSuxsuvqYvLj45GsFVPExWtWJlPDgQD6sBq1axOvpEthY2v6ijjNQxsK67fhdG0YXyyM6sWWyYdLvYPQhk/lryz35DUwLaRuKny1ri/+zsBKLKfCzT5BrHxq2/eULQLY7YKvdmBLvcEADCCAAxPAZZ6UEsBQ8JaZJnEv9yLTZhRwKG2g0T9+Cm65TAylvckH7QwDw2YAARyRAMZe/cIJOuwTtE37aNQwNVLaJo5lh6leAN3T+/+UX0YAN59ftSVb2hIGVssAAjgSAdR0sV2vx8m22pNtWfVdPRST+Mm6ZaXbNt7qyd/8iHsg8pOGbeOJhavi7lksY2mxbzvOF9qRdoSBkgEEcIsFcOrVMMEviXACbNdFsJTAY1M/mTeUNi5H6U64p+44bylPvmp0sVwz2b9kDqUeycd2nbO0J+25bgYQwC0WwHXDRfpc4GAABmAABmBgmAwggAjgUkZlOOGHecLTLrQLDMAADMCAZwABRAARQBiAARiAARiAgZExgACOrMG58+PODwZgAAZgAAZgAAFEALnrgwEYgAEYgAEYGBkDCODIGpy7Pu76YAAGYAAGYAAGEEAEkLs+GIABGIABGICBkTGAAI6swZd515dlu927v3qNu+7PL3Hnn5PVXkyyqy5yH/7WHvfR33+7OzurD7vMPBM3d8EwAAMwAANjZAABRABrRa3LSSGp++C/Oqcxznfc8X639zvvcRe/FfnrUseEpaOCARiAARjogwEEEAFslLW2oL3r8y1H/7Lz3VV/yehf23olHBd7GIABGICBvhlAABHAXgQw6yB12W++2/3Gd65y793D6F/fJzTx0UnAAAzAAAy0YQABRAB7EcC2U7rVOsE/+RXW/sFeL+y1udARhg4RBmAABqYZQADphBfuhLtIXZd1gpys0ycr9UF9wAAMwAAM9MUAAogALi6AHaZ0264T7Atw4uFiCQMwAAMwAAOzDCCACOBCAliN/vHql4XqkYvT7MWJOqFOYAAGYGB5DCCACOBC4tJlSrftOkFO+OWd8NQtdQsDMAADMOAZQAARwIUEsJjSbfE+Pz0lfB0PfyxU31y4uXDDAAzAAAz0wQACiADOLSSSuja/5tH11S9eLG944sOuSRiVBx+26QXUZR72uOsahFXT2j7OprJpBPS6Fq+1KUdA97T6pZQ+Tm7ioJOAARiAARhIMYAAIoBzC2ApNM3v85NQtfmJOA+qlbpGWSseQNnTShYllU2yKKkrBLRhbaOkrkkWVQdFnC1kMXXCsp+LOQzAAAzAQB8MIIAI4FwCKKFpGqHzkEqomkboLNCStab4rSw2xc8IIBdNyxif4QEGYGDMDCCACOB8AsirX+aqtzFfbCg7nS0MwAAMDIcBBBAB7Cwy1ehfw/SoP9E1+te0lo6LwnAuCrQFbQEDMAAD288AAogAdhZALgzbf2GgjWljGIABGNhuBhBABBABhAEYgAEYgAEYGBkDCODIGpw7uu2+o6N9aV8YgAEYgIE2DCCACCB3fTAAAzAAAzAAAyNjAAEcWYO3uSsgDHePMAADMAADMLDdDCCACCB3fTAAAzAAAzAAAyNjAAEcWYNzR7fdd3S0L+0LAzAAAzDQhgEEEAHkrg8GYAAGYAAGYGBkDCCAI2vwNncFmxrmgv1H3JsvPupuyDIuZHNynV2w3x05dcjdQx3C0JwMber1g3wzajY2BhBALnILdXRZdr1795dfd9cffMN95HdvdGc3iEP2qw+5PQ+fLML7Y6rjFmwHL395/qZ78dEbFirP2C4AYXl9PZ45c8blS5LAQjDzvEgDWafDDfnjf5iAgdUxgAAuKB5jh7WLAEr+9t7zJ42i2KVeJRWnDt2TlD+JjZebQnDyU+7QPYwUxur5bbc94Y7nuaurz9hxTfvUTojf6i7wTW3C97QFDIyXAQQQAUxKU98Xhnfc+n+43zjwonvv1bt6SzPLLnD7j+TJEasse5u77YnjLg+Erzju8Ivu0RuQwLCdU3UWhuv6fzFK+yZ13rXeCD/eDpq2p+2XyQACiAD2JmNNoF74Bz91ew884y5+a3/SVY5Wpad+NerU92hWU1k3/fvsbbe5J47nva6pRADpzDb9vCD/MLxNDCCACOBcAphlf+iufHB6Ld8HPrO7Nq6+BbBp9M+fqF2mM1MyWYhLMIKoi4Dir6aWEyNcGlVTOL+NTYWqTC5UMWoAACAASURBVDZcSl4ltwobjnIqj347MwXesMZP+c0T5bFxt/2MANJ5tmWFcLACA8tnAAFEAGulrc1JmO39nrv2wEkXE0AvfXrYI7ZdZERQo1QpQfJ5VxgvSXXhfNguAlgJUvDgiZeyw8GTyMpDKFMX7D889dBKFc7ImSQvlEWJpy1TcfzL00/w7uRzes2jP/7lmjWTdfXRholYGARw+Rf0WL2zj3qHARiIMYAAIoBLFUALXe8jgP6VJYGA2fT0WWJVjZQZwVIYv+0kgEXa7R6UqBtBtOmnBCm2v22cGlGc56leyaeVTJvfrp9j5egaB+HpyGAABmCgHwYQQARwYwUwJWypi0OTCKbii8lWW5mRgIUjeGEe68LF8lXuy2cebpmNt3wIxstvVwlUfTXlPUwz9n+fccXiZ18/HQL1SD3CwHgYQAARwNEIoC5smhb1UmTlJiZa/phQAHV8OKWr+O22rfgonEYpw23sHYcaoVPYPtcA+jIoT7aObNnafFYe29RVm/gIM57OibamrWFguQwggAjgxgpgKRfpJ4DrLh6SGzsqtlYBnLzOZl7ZqkSrxZS4F1ovjU1Spjj7mAJWfc9bvrq25LvldhLUL/ULA9vJAAKIAG6uAC7wqhIJSZMAamo2HF1LyWJ4oWw7Wtg2XBi//b+LsIWjmjYefW5bRoVv2radNm+Kh++3szOiXWlXGFgtAwggAri5AtjwEmh/MfHSEY5gVbIVjJZJCjVKJfkrRsuC18Dou1AMvYTNPAU8eWDEymaZt+Ap4ES48KJY5v/Y1BPEKutMfrwkH5t++XKV98TDMD6uqo54DczC50fYfvy/2k6O+qa+YSDOAAKIAM7VwenVL/FXu8R/7aPvp4D9Sd1mlEpTnlorVwhdQn40iqawXh7LNKZfo6ILShh3KHkKJ+lSvH4biqkPGwsXy28sXGpKNyyTj0+Sq/yF21CGw+/n+Z8RwPhFeJ665BjqEgZgYFEGEEAEcC4BXBS8vo6XCKXEq690xhRPNfoXjHouWgcIIB3WogxxPAzBQH8MIIAI4EYLoL8YlCN0/f5s2ZgvMqrP2AjlIvWCAPZ34V6kHTiWdoABGPAMIIAI4MYLoAdZU7F9S8vYLpSaLm6aIp6nXhQ3bUTnMw8/HAM3MNAvAwggArgVAugvDP6n1V4+9AV3Q5ZtTZlWfcErRukS6yP7yItGF9usQ+wjPeLot8OgPqlPGNgeBhBABBBZggEYgAEYgAEYGBkDCODIGpy7t+25e6MtaUsYgAEYgIF5GUAAEUDu+mAABmAABmAABkbGAAI4sgaf906B47jLhAEYgAEYgIHtYQABRAC564MBGIABGIABGBgZAwjgyBqcu7ftuXujLWlLGIABGICBeRlAABFA7vpgAAZgAAZgAAZGxgACOLIGn/dOITwuyz7tDr502hW/U5sfdvt2r/bde9muL7kPHDjp9FvEew/81F11/WrzENZJm/+zK+51h17Ny3o78bi7iXcW0ulwDYIBGICBNTCAAK6h0tuIwqaEkQjma5DAqo5+8xm3CQIo+csRPy72XHdgAAZgYM0MIIBrboBKYjY4H9mnD7qXTufu8L7d6zmhN0QAr7j3kHs1P+Eev2n4I5XbwCVlYG0UDMAADKQZQAA3WLyGAjYCmD7BbBshgO3qydYZn6kzGIABGFgOAwggArjwqF2fAphl57jzfvtvq7V9fo3fb9z3kHtH3Vq5FiOA2Qe+6T5i1ww+/J/du98/OxI3V/otGUIAl3MRo3OgXmEABmCgOwMIYMvOG7jScPUlgFn2VnfxH550e42cZWf/lnvPvpNu70Pfd+9KSWCTABbfv+723PapSnb9QyS/Fojl3Om3ZAgBTDPE+UXdwAAMwMBqGUAAW3begJkGszcBLEbpZp/mLUfvZvdXbVIjgBrRs1JZHRe0fSqd1P5UPKn9CGCaoVSdsZ86gwEYgIHlMIAABhIAaN1Bq54EPv64u2XX7LRqmzqtRC0y0qdXvlz7b/+oGsGbirNGAItwv/lMMaVcJ4ELpd+CoSz7hHv0xdzxBHB3vqbaukVdE546hgEYgIFmBhBAOpS4VM1RLxoJnOeVMJp+1Xv9Ytu5BfDss13TGsCF0q+pq+rVLzz92xtnXNibL+zUEXUEAzDQxAACWNN5N1Ue35cn2LJHABvruWkEMGhjyaB9d2DdCGBj+kH8sfCMAHIxjnHBPriAARhYFwMIYIvOe12NsynpauRv4fcAdhS5qn7mOK6UwOkHQ86eI54qDy04Yg0gF/ouvBAWXmAABpbJAALYouNeZgNsQ9x9CWD1xK95CrhV/dSIWzm1O/0ASTXaF6Qzd/otGUIAuZi34rklT8QFTzAAA4swgABysV14bVZfAuhBlpyFawBnHuCYPNgRhvP/h2EldjZs6rUyrdOfgxsEkIv1IhdrjoUfGICBPhlAAOfoyPtsgG2Iq08B3Ib6SJUBAeTinWKD/bABAzCwagYQQARwUCOAqz4BVpkeAsgFfpW8kRa8wQAM1DGAACKACwvg55855eZ59UsdmNv4nV4J8/rhfe6a1K+awOPCPG4jO5SJjhwGYKBvBhBAOty5Oly9+uXMmTMuz4+7x2/ZNVc8fQM99PiyTzzqXsxzV9TbicfdTYgg3HANggEYgIE1MIAArqHShy4p5I87TRiAARiAARjYbgYQQASQOy8YgAEYgAEYgIGRMYAAjqzBuaPb7js62pf2hQEYgAEYaMMAAogActcHAzAAAzAAAzAwMgYQwJE1eJu7AsJw9wgDMAADMAAD280AAogActcHAzAAAzAAAzAwMgYQwJE1OHd0231HR/vSvjAAAzAAA20YQAARQO76lszApV89Urz3z7/7r3j/32vfd3c1vP8vy85zdzx5Yvq4U0fdg9dmC7XXTF7y19z371oszjYXGsLQIW0KA/4dp3/y5CF36Ntfdp/6peGdG9ln/8K9cjp3P/rWjS5rvI580T17unzvqK4/z93HO1s3hcVl5xMBXHLnv+wGJP7N6Viz7FL31SO5yxsEUPKX9yxnXv7y/JQ7+uC1C0nkEJgLRVadm9++9v27qvIpXFjnaotTRx901wadaHbeHe7JE2Wn2fS9TTePCHrVlpHvwno8744n3YnJS8JtvP5zLB/h8bH/Vc4wPv9/mF+Vu0taVf02sKq4bT66pBMr27L2NQlgln3W/cUrp6duzlSuPP+R+9aNy5XGLgJo6yj74rPudJ47BHBz+gzbfsv4jAAigFVnuQzAiHPnYqPOOJSRsI7UWfbZQbZNO8zLUP8vZbZ59HJHUKbFV/URq+NCxE4ddY89cWRGknx9xNpH8YXS3l0Ap/O5aP0rX7FyhnHHyhWGsf8r7tcOPVYIsxVvG05tEObB1/NLRtbtMev8XAngQ7/nLg5uDny+JID5j77lbox8v+y8I4A719Rl1/W2x48AIoAI4IoYUIfZKICXftUdyfOpkaxFL0RdO/dF01v28V0EMD/1kvvB8yemRl7VFqGUSNj8/v+xGJGbFbJUXZYjeNPhFV842harn9jxsXBd9qXKGYsjVa5YWL8vKzj1Ep4e2S7L1C/Lqfz0tR8BRLD6Ymno8SCAK+r8hw4C+SsveuqwNaXjt6EkqK7UYSps0/SqOuMhC6DyqDKlyl8IWDGtOb1W0Y6AKS4/MqRRoKLsZoo1NWqkOk5tuwngUXfwfj+9ujNiqLyFbVu2aSlxat94mHyGi5jAiadtFMCiDSbLGWLtoTpuU/ZUO69jf58C+Nm/eMWdzp9z9+2anjZOjR5qmtaef+GU7dQI4GRa14dvmn5W3GF8to4VRunnRd7TU9pffPZ0Y7o2fj4PS64RQASQEcAJA6kO69KvPj+zbq4c/ZiWgKbRjir+yBpAxacLb2zbVZYkMLG4tM/KjfIQ2xdKq4TOx6PwVfkm6930fxWmGDE65Y4dO1bUZyENLdbGxTqNmHAkwxVplKNUYV71v44t27AUxUregvZSvdpjtS+spyqOFuWMCaTyNe9WbWDzmopLZWgVdrKeVWFLdoLRz4noK0wq3aHt718Ay/Wkemgjy8oHM/Ln7nO7zBRyIV/BPi9Y/vyx0lYJ4LFj7rSZhm6SMcmdjcvWfSmr02sE6+JUPnz+VDYbH5+HJXux9kAAEUAEUALYssOqOvVQDCZP7oYSoBNPnXHq+yrcGqaAU2XyeYqJiQQwlFIrZlV5JyNvoWDasCp7263S952P/bMjkD6uIo2JfNn0lDcrJ7E6sEKovEmUbLr+c2ykq4qztQBOP7FZxLvAgzuxcqoc4VblsnUShtH/ofDF0gnbW8cuur3ycw+57x065J599tno36HE2r226WbZle5zD33PpeLRGsCw/Yu2MkLm05NUhYJUipUfGUyPrvnjJYv2eIlXOIoYC2vLXCeAqWNT+8u8laOaTSOPNg98HpYUIoAIIAIoAZyMavgLeV0nqI4ylB9/cbOSEV7s1EkOUgAn8hsrU6y8deVUucPySgiURps4FFe4bXtsEW4iXypH2bbTI4I+fn2v/DXts4xUZQ1krbsATo+iheXu+r/yFZMVm39b1nB/LE1br/o+3Kf2tvH5MDYvtq4Vz7q3bQUwFLBYvksBnH0yuKsA2tFCCaCVQp+2xNSGtXmqFcBiKnk2n1WcgdjaePk8LKnr0h4IIAKIABoG1GHbTsp2YP7kUsdmw9jP4SiUTkh1xoMUwJpRR4mRrYeiszdr6lRGuw3Lq3pTp98mDhuf/dz22CKcGX3b+X9WAKOjfZFX98Tqw+cttl88xUYHbXn859hIaxim6/9qA9t2qThi+Y+FTcUZ5l/tHUtb34mFWDrr2rdOAfRiaK8l+mylrlEAE7JWJ4AaqVR64baN7K6rvUh3fgFFAE3nD0jzg7SNdafO218MrbSpo+zaeanjtHHF6m0ZnaPyHOuMfR70faxMsfy0EbCwvGE8beKI1Y/f1/bYHeErp9p28vCnxTsZVR+2rcPOr2h/I7uqKx2rPIblLepVywKMhCp8uA0FKvx+nv+VpzCvsbhS5QrDqg5j9eT3KS2lHZNfxRHjLUwv/H9VU8Df/vKn3C+ZNXrKR5dRsbYjgFWcwXsENQXbTgDjawurfNe8B7CUw9kRQB3Ldjv7RgQQAWQEsIYBiYHtxKqOLVgD2HSRbHtcl86xlIY8uv7M5qepc6/LW5nGzhO0Pt42AhbGGZYrFYfyWvdUdepYW+Yqn0a+qvZ87QfuB0d2HuJRmjEhCfOtsBIdpRnbX6Vn8qDw4XZTBDCUapUjVtaynWantcM6VRybsK1kLTHSZsvQXgDj8tZJACe/EJJ6yKNuBDA1qmjLEvusEctwOjoWln3Dk0gEsKbzB9jhAbvMNik6pUDqYp26z4PEK5SAuvyFQpQK27ZzVIdbjlDNdrI2/lQ5bJhYmZSXsJxtBCwsr+KSZKXiUD7saJLNp/+cOjYaLpAv5cPGXydfM+WIPCyktrA3Cj4vqf1hPv3/dXmIhW+zT3kP2y92bBtGFF9qFDssQxU+XBtZs+QglrdV7suu/Jx76HuH3KFDD7nfu3j2IY2lCqB57YqkrDi/zdPB2m+lqxLFGimtE0Bfv5K5lECGbaA0y+tP8wMt4fH8v/7+FQFEABkBNAxY+fAXNv8nYQkvWOowFU5b29mqA9R34daGVfwSlFS6Cue3ym8oHjaM/6y8xtKzYZW28pkahWsjYCq7ZEFxq1ypOJTXVNo+v/5Y5THcKn6FC+tGUuaPK+ujfJdhGM7Wi82r8hemG6tbm1YYPiyf2jIMt5PPWRmxeYx9VhvE8haGT5XLp6+6CdswFUeYXqxsqbWyYZyr/r+tAMbaKXwitu0IoC+jxE7xlu/gmzxpawUw8VN0VghVZ5I+xWm3YV6LPJj3CtqwKSlU/LG4lAe26xe9VBsggKbzT1US+4cLMG1D28AADMDAehiQtPKQyHrqf1HuEUAEkBFAGIABGIABGOjMQNdp40WFheP7FU0EkJO+80nPSdjvSUh9Up8wAAObxIBeG9P0U3GbVKYx5hUBRAC3VgDr1onZ9S1a3zTGCwBl3izxgOnNai/OL9pryAwggAjg1grgkE888kbHAAMwAAMwsE4GEEAEEAGEARiAARiAARgYGQMI4MgafJ13G6TN3S4MwAAMwAAMDIMBBBAB5K4PBmAABmAABmBgZAwggCNrcO68hnHnRTvQDjAAAzAAA+tkAAFEALnrgwEYgAEYgAEYGBkDCODIGnyddxukzd0uDMAADMAADAyDAQQQAeSuDwZGw0B20+PuRP6ie/QT3X9Xl06rn06raINXD7l7r5htg2v2HXbHDt3rrshmv6P++6l/6pF6FAMIIJ3/aDp/Qb+u7Tkf/rb76IGTbu+DR9zl7xlPB3fT4yfc1Iu3X3zUfaKhg8+ya9y+w69PH5eQhi7t6QXj9R7i6ZLmUMKqHfIW9V+X5yy7yT1+InfzxFMKeO5ejUiebfPY93V54jukBga6M4AAIoAI4IoYaCOAWfZL7oJ/8/JWSmJbcZAI5D2N1Ck+K6H+8zwCs+xOpqmOUmWxZcvzV92he6+YOa/XLYBNZVPd+nymyqAwbLt39tQZdRYygACuqPMPK57/ORljDCCAZ7vsmn3u8OvxUaJYndXtU1x5MepXjioOeXSprSSpzCrfKsvUNY/Kayl2zdPvVfwjHalVfbGlj1g2AwggAjgzUrBs6Ig/fWFDAM92miZ88dFPLMymHU3S6NkqZakr65X8tJym3RQB7JrPPhno2gaET1+fqJvtqhsEEAFcuJPdhIvCrt/6gbv+4BvV394DJ9yvmgcByunZ6X22XLHvs/P2uasPnKzi9PF/8nOfm6nPmbS/9qT7lWANnKaHbR7t5zC/Nm99fpYk2SnFlDCpU1fYpmm7tnLTZ+c/LYDl2rWUWBZhi1GnMlxVroSMKZ9VuGDK2tZlmGaxFjHPXTkymTmftuKJbRUubGu1QbKNImspU2EVd3O5ZtcA2rLG8lq2Q/PoX5WHlusMVY9h/SoettslLLRnv+2JACKAM8KybSeZFzArZll2ibv0j086K1WlgP3UXXPTJ6P14eOw4Qv5C0ROomfTsnVZpRscNx1mfWsAK0ELpt5uevzozJoySYKViabOuIo/IlSKLyY/2jdPJ694Czl94CF3+PX4+jjfBlbClFZKsGJlLSVnOn6JkZVjxRkTpbo6spzos+Ky7aDvwm2bsKoDld/HURz3w50Hd8I8qoy+nexxSl/fd11z2SSNyodPt2vcyhvbfoWC+tys+kQAEcCo8Gz7iVyO3u0IX/h/OOJXCGDD07sSvGu/+IB7ezDC5+tT3+8dqgC2XHuX6tBT+8WSOuymzlrSFpMJxdVlq/gkkilZisrPZATNyprKEcaT3D+p1zKOch1i6gEXxdFURyp/G6lrG7ZtXNN5VHmmxVdp+q3Ch/Vlw8Q+l5KdjtcfE2uzWFzs2ywxob1W014IIAI4YgE8WY0MZm/7bfe++8v/tQ5PU7r6v07c/AWrSfCavi/jWP8IoBelus5aohATtLpRG4lAk9xI2GLxL9IxaNROIhjGH8t7JbVmVLTM36yYxMIqvypTMVqVeEq3bP/Z6VXFEduqLeraS8c1hS3rp3madqcdn3KPHX7dpWS2bboKF25VZ2E7heH4fzWyQD1vXz0jgAjg1gugxMuuqdNnTdcqTDl656eIT7irbv+2+2gxWldOGYcje5ryVVzapkRRaaS+9xfYSjYbRhuXdTGWxEiSYjKojtmGsZ9TQrAjDjvTibFyKP6+O/5C8Irp5501fjaNtgIYiqQtu/9sRwtt+Xz8/vs6WWtbR4q3SeoUzm+bwsbKb4/XZ+VR5U61dxW+5ciywmu7LA4UP9vtExratFubIoAI4FYLoEb2wpcv6wGOHQGcjLx54fMPd2hbPCxSCuBM2AM7U8j+wtMkeE3fl3GsbwQwvHhaGbSjdhIJK0/hsbH/JQ42rmi44tc68uh6slj4tvt2BDCrnjS2MhYTINWBlbpSTGZHAOvyIZl59dgx93qeLlvbOlJaagtbDn0XbpvCxsofxuH/n8rj1PR2/OXmCt8mjza9NlPANjyfu3X+1Bf1hQAigNstgJMndSVvuuiFAuj3F+v8vvaku2jy0IiE7ZN3HXTvu39H9rQ/HMlL7a/S1MMnA10DqHzabVSAWj6haePxnyUCfQqgRuOsoIXplmlPvwOwEjLzixQxAYqWv+OIlsSrLHf9mrm2daQyKu42ctUUVnXSJPZhHhVvqg1idaj8121j7RGGr9o/8mBRGJb/ER4YmGYAAUQARyGAVtbsK1esGGr/XjOyp2neqSeAJXLmVTIaafTTwDYte8FpEkSFVT5s3vTdMreFAAQdqTr3UDDU8Yb76/IXikMqbHsRKWWqmHaNrKsrxeOHxe/+Km0vN/ocCktMOFLy4sP6dFvLknlFjOo0TF/1Ueaj3Qij4mrTDk1hq7IGdVkcV/MUsM+32qy+TM3rC1UHVRsFPOr7Ik3zihv7lLUNw+fpDp/6oD4sAwggArjVAuhhl1BNrdEzD33ohNCooJ0uju3z4a3wFdJXyKCZRp48BSzpU9rhNlxXqLzM5NnIpsIsYyux0/quOsmRUNiw/rOVEXXkYRj9b8OqPJKJJrny4ZXflHik0o+l20UAfdrKp8qirfJt09Y+lbEp3xJMxZksX8NoZKqNFG+YL1unChOmrXKFI7lVmYzsqrzKR6zeFcZuVbex/E2Fm5Tf57UprD2Oz4gQDJztEEAEcOsFkBOdi30pFO1HoGCmf2Zigh2r50owzZPXsXB+XxU2Ip2pY9jff9tSp5tZpwggAogAwsDWM1CMTrUQCjqy5XVkGgUMRxTDOu8yBa5Rx7Yji2Fa/L+89qZuh1+3CCCd/9Z3/lyIhn8hoo3G0Uaa2g2nj9X+Erqm6dwqnmC9ouJhOw6eaOfF2hkBRAARwC1lIFxHpjVd4bZpRIaL7GIXWepvuv68vB394aPujiumXxujh1AYzZuuL/ihPpbFAAK4pZ3/soAhXi5GMAADMAADMLD5DCCACCAjgDAAAzAAAzAAAyNjAAEcWYNz17b5d220IW0IAzAAAzCwKAMIIALIXR8MwAAMwAAMwMDIGEAAR9bgi94xcDx3nTAAAzAAAzCw+QwggAggd30wAAMwAAMwAAMjYwABHFmDc9e2+XdttCFtCAMwAAMwsCgDCCACyF0fDMAADMAADMDAyBhAAEfW4IveMWzS8e6ssxx/1AEMjJuBTbpmkVdG9VbJAAKIAG7tXR8d/7g7ftqf9vcMrLJDJS0EbpMYQAARwK29QCIACAAMwMAmdcjkFYFcJQMIIAK4tQK4yhOJtLhwwwAMwAAMbBIDCCACiADCAAzAAAzAAAyMjAEEcGQNvkl3J+SVu2kYgAEYgAEYWA4DCCACyF0fDMAADMAADMDAyBhAAEfW4NxJLedOinqlXmEABmAABjaJAQQQAeSuDwZgAAZgAAZgYGQMIIAja/BNujshr9xNwwAMwAAMwMByGEAAEUDu+mAABmAABmAABkbGAAI4sgbnTmo5d1LUK/UKAzAAAzCwSQwggAggd30wAAMwAAMwAAMjYwABHFmDb9LdCXnlbhoGYAAGYAAGlsMAAogActcHAzAAAzAAAzAwMgYQwJE1OHdSy7mTol6pVxiAARiAgU1iAAFEALnrgwEYgAEYgAEYGBkDCODIGnyT7k7IK3fTMAADMAADMLAcBhBABJC7PhiAARiAARiAgZExgACOrMG5k1rOnRT1Sr3CAAzAAAxsEgMIIALIXR8MwAAMwAAMwMDIGEAAR9bgm3R3Ql65m4YBGIABGICB5TCAACKA3PXBAAzAAAzAAAyMjAEEcGQN3tedVJZ92h186bQ7c+aMy/PDbt/ujIsHLMEADMAADMDAhjCAAG5IQ/Ulbn3HIxFEApczRN93exEf7QQDMAADMOAZQAARwIXv1rJPH3Qvnc7d4X27F46LCxMXJhiAARiAARhYPgMIIAK4sLQhgMs/UbkYUscwAAMwAAN9MoAAIoAIIAwszECfFyXiopODARiAgeUzgADS+S/c+TMCuPwTlYshdQwDMAADMNAnAwggAogAwsDCDPR5USIuOjkYgAEYWD4DCCCd/8Kdf/Uk8PHH3S27eB0MF67lX7ioY+oYBmAABhZjAAFEABcWQJ2EmgrmlTCLnZSqT7bUIwzAAAzAwLIYQAARwIUFkBFALlDLukARL2zBAAzAwHIYQAARwMUFkPcALlyHXOCWc4GjXqlXGIABGIgzgAAigAvLi6Z+eRF0/CTj4kO9wAAMwAAMDI0BBBABRABhYGEGhnZhIz90tjAAAzBQzwACSOe/cOfPCGD9ScZFiPqBARiAARgYGgMIIAKIAMLAwgwM7cJGfuhsYQAGYKCeAQSQzn/hzv/zz5xyvPql/kTjQkT9wAAMwAAMDIkBBBABnEsA9eqXM2fOuDw/7h6/Zddc8QzpZCAvXJxhAAZgAAbGwgACiAAibjAAAzAAAzAAAyNjAAEcWYOP5c6GcnIXDwMwAAMwAANpBhBABJC7vg4M/LN/+t+6n/+5n3X//B//w1H+/df/1T90v/ALvwAzHZihA0p3QNQNdQMD62MAAeRCTmfegYF/9t/9E/fR3f/A3XLxz47y75d+/mfdW97yFpjpwAwd3Po6OOqeuoeBNAMIIBdyOvMODCCACCAdSrpDoW6oGxjYHAYQwA6dP2BvDtjLaisEEAFcFlvEy/UFBmBglQwggAggI4AdGEAAEcBVXqBJCyGAARhYFgMIYIfOf1mNQLzdT/As+7x75lTu/HsI9Xd43+5GmdXP1ukYvz3++C1uV5Y1HuvbKRTAmy/6fXf0jTIfL3/9H2/0usCbb/1z9+PTufvpf7je/euLfiZaliGuAcze/5D78MMn3fUH36j+PvI7v+Wylm2q8y/L/shd9dB0PB/4zbe24kJxhAgW0wAAH3hJREFUsO1+LlNn1BkMrIcBBBAB3PgOLvv8M+5UnrsmAZT85Yf3ud0d5UAXqGUL4Ld+4H9V5Vn35HviArbMh082UQAlf3v/8Evu7DnbVG1rt9n133fXHjjpEMD1dEy2LfhMG8DAchhAABHA0Qjgpw++5E4v+KsloQD2LWQIYLcL3Ttu+8/uNw78rXvvB87plWMEsFs70EFTXzCweQwggAhgrx3nOi4CbUcA+/jNYgRwWGsA3/Vvf+r2HnjGXbyr3RR+Wz4RwM3rzNq2LeFoWxgoGUAAEcCVCKCmX7X2ru73g8uRup31ffnxx90tNR38OgRQ06U75Tnmnv9f/1F03ZwfJbx53/fcm7kpU2Kat8sIoF1/qHzUrd/zcSuc3+Y//Lz7n81aP5XJxmHT8OEv/Kc/M6j3ALYVQB/OrhFsksY2AqjpZ8W7t2Ykshyp3FlfuHffv3PnnR2X1uzCO91f/Th3+atPuTt6nNam00N8YAAGLAMIIAK4dAGUoNmHLYqHOF6ZFbtylO64e/yWXUW+suzT7uBLp12eH3b7dic6zJo1gD4+Kz3h57p47Ymiz7ERwP/t20ddnqcFsPw+d/YhkUK2jkwLmBfFtgIooZyStYlkzojd5EGVcG2hz9dL5sGVUAAlf7ZsQ3gIJJQ5CZi2odz58HYtnx72CMOpjf22SQD1vX3YpIj3vlmxKyV1Z5o6yz7l3v2nrydHLq/6xgsFs3n+qnvqjjjzNq98plOHARiYhwEEEAFcugC2XXunUcLwYY7UfgEvwQyP0/faLmsKuEkA20pdWwG8+aI97m9eOT0zguePj+Ults+HDf+mBbB8ujmUxq4C+IE7H3HfP3TIPfvss9G/Q9/4PffOBUa5SrnqPgVcCtyOlIkRbSV4Vhz1nd+2XXuoUcIwntR+H3d21TfcCzkjgLa++YzgwED/DCCACODSBVCCVjft60/uUhRnR/r0ypfU07uKf6gCWApY3urp3jayKFGzI4qSufC7OlnUMdrq2J/+h0fc376Ru/zEv3MPXDr9NHJXAVz2RXsxAUw/5dskgPq+btrXl70UxVlBrUYhe356edn1Tfz9d8LUKXW6LgYQQARw6QLo4dYonqZgYzLYOF2beH3L0AXQC5ambHfKH3/VSysBnEz11gmgpoaradxgvZ+kz24lgFUet0QAJVuaIrbbcGROF2IJXur7gung/YMxGfSCatMLP/f9+hrlny1SAQMw0MQAAogArkQALYhWBu2oXWoE0B4b+7wJAjglWlqrF1k32EoAJy9sjgpgIIfzCGAhj8pjII5dRwDXPQWsqdbwoYsmwWv6PuRQ6XjBs9KYGgEMj+d/OmsYgIFVM4AAIoArF0APuSRw6sGQmoc56k6MvgVQD574kTCbP5+HeR4CsfKnzxoRDCWulQDqoY5Aznzc5XTz9Ohimzj9sRoBrEYPIxLYVQDr2q2P75qmgFMil9qvPDV9r3B2KwmcejBkjhdKV08B8xDIWq5Ntk35jJRtMwMIIAK49Iusn9q1I33+hIo9GCLxik0P152EvQvgpw+6l06Xr2wJX0HTVQDLNXgvz7wiJiVlqf0SR221rlCyVgjcRNjsPit24Zo+H0fdU8D+WKWjJ4s3VQDtVKt9JYsdrbOMNQmgF8/w2NiDITtP/KYfOLHp+s8X3vlX7seTVwb93Q8fcB9b4CGZMG7+R2hgAAbEAAKIAC5dACV2Wlvmt3WvXynlcOedeWX4nVfDeHglfTZOfU4JZNungG1+UyOAEiOlabfhk7Oahp0KE1lf54XLC6ANZz+Ho4UaRVQY+7oWH5f908MgCuu3KVEM9ytPXiB/5y2b9x5AK3x+iraQwcn6PStxkr5wnV5xTPCOP4mdDVv3WpkwD7E4dVHOsgvdnX/14/JVMLwLcOnXJ9U7W8RobAwggAggF9gODMRGAK1obfvnoY0AbusFW+8CfPWpOzg/O5yf28oD5UJOl8EAAsjFhQ6mAwMI4LB+Cm4ZF8V1x1mtAfy7H7oHPsaLoNfdHqSPfG0rAwhgh85/WyGgXO0vcAggArjM8+UbL5RLH1j71/6cXGZ7EDftsM0MIIAIYKcRQL2U2a4lS30O189tw4mEACKA28AxZUBsYAAGEEAEsJMAjv2igQAigGM/Byg/4gAD28EAAogAIoAdGEAAEUA6v+3o/GhH2nHsDJz1jne8w/FHHcBAOwayt/y8++c/9zNu13/zs6P8+7l/9A/cueeeyzWD6yYMwAAMbDgDZ33oQx9y/FEHMAADMAADMAADMDAeBhBABJgbABiAARiAARiAgZExcJafzuFvvHXgzjrL8UcdwMD2M8B1frzXedqeto8xwEMgHR4A2MYFo3T829/x08a0sWdgnutX8bOMh/e53ZHfI479xvc8aXAMD2PAwHoYQAARQEYAGQWFgREwYDtZ/Zb24X27k2Ko3+SOhbHvA419b9Pi83o6d+qdem9iAAFEAOn8R9D5MwrIKKDtDJoEMPv0QffS6dzVvcw9yz7tDr502uX5YbdvNz9ZZ+uXz8jXJjCAAI5cADcB0qY8NnVmOr4c0TjuHr9lV3LUQ2GbthodKTrIorOMx1uXpp9CS3Wedcc15W0s37eRlCHVhUbN8sSU6irzWnfOVGJ3/HF3y656sVMbDKFMq6w/0kLwtoEBBBABXFiG1n0i1HVmNm91wmXDNX2uOvJJB1l2gghgU731/b3ko26Uqu80F4mv4mboAvj5Z9ypPHdtp3a5WUGGFjkvOHZ9/CCACOBKBFCdtX43OM/jwuQvBhpdq8I2jESsXQCLDjM+DVbXOdYJad1xXS6Yko5CkiYdu+o11sFr9Edh/DaP1H9Z52Ubhu0VjTdIOzbyWcbj67GcWlQebPqx/CmctvOORolRn38xpThjkqnwClPHtG8ztUVd/mLlS4UP8+jzEav7Iu2g/pXnMLzSt3XexJvqIVZH9tiS9/R5b8PyeX1SQN2Pp+4RQARw6QKojsp2EEVn+MrsFFPYSVQdUs06I8Ufdmb+QubjU2cX28ZEpM0FUPH6jvK+v3jJnY5Iko+nTuTKsnYXxzb5UxhJhy+7LaukzdZZWdfHpqbI1bmHQqA6L+I1ZQ/bb6cOpkeU6sL5OMWK8h+TIOVNYVXmebeKr1VdTYTKph2rU5uXurL4cErflrXaZ+q4COvTD0YSxaRtUx82xpnaLwyrPNpy2TLEPlfnaJBHG1blsG1rv+fzeKSDth5OWyOACODSBbBOguzFQJ3ETKc0WZAe7texqc5M32sb6wj13TxbdbilMMRHNurKXpefuuO65FUdupU/f3zVaQcSEYu7zMu0qKrOrawU8U7ESG2l9EOhiO0v05l98CBVT+IljDtWhjb7FN+M7AYPRKTqLrVfaavMYZ3p+6KcEYlSXatOFT7cKn5bH6ljk/sbzrUwTf2faiN9X9VNzci/wrIdjiDQFtvdFgggArh0AVRn0zRFFhMNfwFSx5bqOBV/UwfZ1EnNc7FTx+YlMBw58vHViVxdfuqO65LPurpLCUcYfywvbeu8DDcrx6o3K1uxdHxeUvUkYbPCE+a9y/9t41O4GG+pvPp81LWFvouVpe47Wz6Fs+dJWafT8l7kJRB1xdO2XRVe21Tb6Xu22y0StO9mti8CiAAuXQD9xUGd5o4ozUqB7zz1fWxrOzZ7wWnbadV1zja+Lp/V6XoZUD7saFtdx1iXn7rj5slfrO5i6YftpHYI5V1ljUmQzV9ZjjzZrhspgBN5Ut2EW9v+ti7ESqwtVO91AhgelzpfbLhYG/s8pdovtd+WI/a5L15jcbNvM+WCdht+uyGACOBKBNBeDNTZ+Y7TCkTZicyOVthjY5/bdlqpzjAWZ9t96tRVjjKNHbmt6xiLsJEpP5923XFt8+bDKX9WCsr9k3e4mfRVj2HYWF4UVuVO5akMt1MfqXB+fywdvz/VbuIoJk116aS+axufwjWVPUwn1RY+nL6LlUXp6btq9DSYTlUctv2SdZcaAVzSFHBYF/w/fDmgjba/jRBABHDlAlh0eMG6qmJfolNquhC1lZFUZxjGrw7WC6o63TCM/i875x3BKdPY+T+VN6VhO2vF6bcpGbJh/GfJQThCp3AxKSiOyz7vnjk1vd4ulWZsf6pcSldb5a+pHn34WDp+f6rdusSt/NRt28aXqtO6uP13dcdVPBghV3yhRKfiie2P1anSCm/AmvKo/IRbxWdHc8Mw/n/fjm3Oqdix7Nt+GaGNV9/GCCACuHQB9Bf+cLSkrmNKyUzqAtFWRlIiEcYrEfCdVaxTK75/rvx91DLtctRS+bCyU3WOwVPMZV52RDHMQ6x+wjD+/zJcOcVq01XYmBSk8qS4bDzqtMM2UVnDdlW6dqs4msKmypxqt1Q5bNpdPqvdbflTx8fqKhVW+2Ntoe/8VnVqbwqUp6l9E3m3U80KVzBrHuwJ01SdHX/uB+6V09NPZhd50K97RETU5tV+Vtp19aZ8FPkLzgUbF59XLwHU+XjrHAFEAJcugOp0/MVff7bzCi9A6lwVtuw0pmVJnaUNo8+hrCj+lEjoe21tflOdWiz9VLo+XklQlceGDjYlQ8qjtup8U2nbjldp+60VCsUVy2dR/mJkNl7/TVKnuGP15fNhj0+Vua7dbFupfKmyKS+preoy1ebhcQqvdLW1x6fqPxbWxx+L09aR8hCGK8+nybS+EcBYnD4+HR+Nu+NIfKrdlFdtxUCKVYVjO14hoe1X2/YIIAK4dAHc5pO6kJOgwx1SeSUg80rRkMpCXlbTOUiqY6PfYRtIJNvwVYVtuPkJ0+D/1bQ79Ty+ekYAEUAEcE4G1FHaEZ+hXUQRwPFd1PtgsBqtq7m5Ef91o/k2LxoFj4062nB8hlkYWA0DCOCcnT+ArgZQ6nmxekYAF6u/MfOnpRipG5xyan56aUCsvhRPW1GMxcE+OIaB/hlAABHATiOAEgqtYarbpjoOTuT+T+RUnaq92kzRpeLY1P0acapj1H/XZqpzU+tg0Xx7eTv2+C1uV5ZNXSfEFaN5qzuXF21LjqetQgbOuuiiixx/1AEMwAAMwAAMwAAMjIeBsz70oQ85/qgDGIABGIABGIABGBgPA2ddddVVjj/qAAZgAAZgAAZgAAbGwwBrAFkDOLW2J1wjwP+sG4EBGIABGICB7WMAAUQAEUAYgAEYgAEYgIGRMYAAjqzBuYvbvrs42pQ2hQEYgAEY6MoAAogActcHAzAAAzAAAzAwMgYQwJE1eNc7BMJzVwkDMAADMAAD28cAAjgwAdyz/4g7mefOv6D2hYf3cEc2sPbhIrh9F0HalDaFARgYIwMI4EAFQyKIBHJhGuOFiTLDPQzAAAwslwEEcKACmGV73P4jJ13+wsNuT/AzTJwUyz0pqF/qFwZgAAZgYNsZQAARQKaZB8rAtl98KB8dLAzAAAysjwEEcKCdPyOA6zspuCBR9zAAAzAAA9vOAAKIADICOFAGtv3iQ/noYGEABmBgfQwggAPt/BkBXN9JwQWJuocBGIABGNh2BhDAgQqgB698Evgn7um7L2WUbsDttO0XCcpHRwgDMAAD28cAAjhwsdBIIO8F3L6TjwsqbQoDMAADMLAuBhDAAQsgI4BcGNZ1YSBd2IMBGICB7WYAARyoAGrkj/cAbvcJyAWW9oUBGIABGFgHAwggAsj6woEysI4LAmnSEcEADMDAOBhAAAfa+TMCOI4TkAst7QwDMAADMLAOBhBABJARwIEysI4LAmnSEcEADMDAOBhAAAfa+TMCOI4TkAst7QwDMAADMLAOBhDAoQrgbd91J/LcvfDwHkboBtpG6zhhSZOOAgZgAAZgoA8GEMCByUX56pfc+ff+/eTpu92lWYYADqyN+jjxiIMLOAzAAAzAwDoZQACRCwQTBmAABmAABmBgZAwggCNr8HXebZA2d7swAAMwAAMwMAwGEEAEkLs+GIABGIABGICBkTGAAI6swbnzGsadF+1AO8AADMAADKyTAQQQAeSuDwZgAAZgAAZgYGQMIIAja/B13m2QNne7MAADMAADMDAMBhBABJC7PhiAARiAARiAgZExMAoBzC6/x/31q+W79fITT7hbebceJ/rITnTuuIdxx0070A4wAANDYWAUAqjKlggigZyAYoItLMAADMAADIyRgVEJoG/gy+/5a/dqfsI9cSu/sDFG4CkzF3oYgAEYgAEYONshgEwFMh0MAzAAAzAAAzAwMgYQwESDlyOFuTvxxK2cFIk64g6Ku2gYgAEYgAEY2EwGEMCI3GTZR9wjR3lohJN6M09q2o12gwEYgAEYaGIAAYwIoK+0jzxy1J05c4YRwET9NIHF91x8YAAGYAAGYGC4DIxOAPUk8OtH7nfX8DoYprcRXBiAARiAARgYIQOjE0DdjWiNH6+EGe7didqKLW0EAzAAAzAAA/0yMDoBZASwX4A4IalPGIABGIABGNg8BkYngG3fA8gI4ebBzAWINoMBGIABGICBdgwggJF5/yy73N3z168WD4Hk+evuyP3XsD4iUk+cZO1OMuqJeoIBGIABGBgaAwhgQmw0VcyTwJy0QztpyQ9MwgAMwAAMLMoAApgSwMm7AHN+No7RzwQji558HM8FHAZgAAZgYF0MIICJzl1rAHldDCfnuk5O0oU9GIABGICBZTEwKgHUL3zUvfol+8gj7mieO9b+cdIt66QjXtiCARiAARhYNwOjEEC7ni9//Yi7/5qMac3EyOe6gSR9LoowAAMwAAMwsHwGRiGAgLR8kKhj6hgGYAAGYAAGNocBBJCRMEZDYQAGYAAGYAAGRsYAAjiyBufubHPuzmgr2goGYAAGYGBZDCCACCB3fTAAAzAAAzAAAyNjAAEcWYMv606CeLlLhQEYgAEYgIHNYQABRAC564MBGIABGIABGBgZAwjgyBq8y91Zdt0j7ugbJ9x3b9/NhWGknJQMHHFfuXAcr04qynvsu+723eMob5frAWE3Z2SHtqKt2jCAAI60Y28DR3b30+5kPszO/7pHjro38uXJ6d1Pn3T+d6DzI19xF2bjlIFS/vK11UHJn38p++oYLLnKXX4CCWxzjSAMogEDm8sAAriAAGbZZe6ddx5ze7/2rLv4ku2RBMmPFyD9Da1DHIIAZtnd7umTzYIkqVBd2u2Rr1w4yNHVLLvOPXL0jbWK0DoE0HdmSvfEd293u0cq/3Tqm9up03a0XVsGEEAEsBKQSmgmIy5eBIc6ArZsAWxzAlX11TBKWOZ1daNYbfLeFGYI9duUx2V+X7C/xBHmZeaduBEAGICBNgwggAhgJYAaqdKoFAJYfxHZVgFsW642F5hNDUMd1LO/qe1KvmlXGNhhYBQC+NZrn3IfP/Cye9/Vmdt98xF3/cE3ir+9B37sPvjZqysBEhhl+JM74YIp3vB7xaft3klaPr7UNHGW/bq7/Esn3d79f+nOn0wzVWGLfeX3VZxBHnw5yqnnIJyJT+Vpu7UCqCnAvqbBtJ5M0595ZHRFYcI0NSUnMfXlsSNUdso6nKquJLZYz6j1ZOX0ps+LHeFUmZVHvw3z4tO26dmw+hzmocxr+xHAMP4wPp+Hsk7KNZBqN6Vv66lL+cWJrVvtW3Q7U6bIuj61s8qhbaz8O3WQV8sUfHhbdh9G6YbtqLTq1hcWdRfJp60LMWs5st/zeaezoS6oCxgYFgMjEsBS6CRclWwZWfNwFmJlxDAVzoetvgvkzEKeClMngJK+j/3uTYWcZuf/gbvyz6Zl0YpsGO6T937ZvW2OtUvqzMqO9E+L9W1hh2rL1vazOlvbCRcjLC9NL7RX+jZcUc8TebN5kaQcO/ZGJWnVqI1ZwC8BKCWiXLN34tgxd8yv7yrijT9IksqLLXOVXk9TwFV8Jv/VvkBEVKe+rawgldKyU6Z5yl/EYfJgyzzPZx+fbbtUmcK4JeS2fApTlD+od5XVpuXDh/tbpx/hTulrq7jrRFJh2Q6r86M9aI+xMzAqAQzFqBzJ2xkFlGhJqARHcn+Lh0DmEcBwZDIWhwTQ5jUWTmVou5X4VKMvQSfbNh4bTrLW9DoZpd1eAPNK/pReKUazAuSloOr4J3IjiQqFwceVyovSKcJ0egikeQSwrKfZcLG8KO/hyJP2q0wSlLblr6Srh3a3dRV+Dtsp/L6s324Poqh9Z/hRO9m1rZER6DAPsXqfCaOR5SXXV5gu/yMvMAADizIwIgHcEb1UpdmpYhsmNlrnv28jXKkwsThTYW1e9LkcqSyntbWvy/E6JrWVSEgEw041dVxsv+KKTfva8KkOV8dLavwxKalUHArrBUijMxIESVMsXuVH8dSVO4xPx4bbMq/TU5XFyJ0Z1asTr9h3dXm36Xctf9sy2TTm+dwm/1W5W45G1uVd7SmexUdd3uviqzuO7+iYYQAGNoEBBNA8BKJRNU3BhltNH6th2whXKszQBbCQlqLj3VkvVydDqpPUNuyAYzKoMGE6MVloEkDF0VWAlP9UXvS937YVhDKvsyN7beOKiVCsTmx8+ty1/G3LpPjbbBWn5Mtu60QsVm6bni+bjUufJfg2rP8sEU99H4ZXvtuGD4/nfyQABmBgyAwggEYAUyOAqQZMyZ0NnwqzOQKYVdOhfXWEkivfYVsB0H7Jm+oxJjtJAQzWbXUVoCrN4ldQZqeY9b3fthWEdgI4me6MTCXG0onVic2bPnctfyVdkXwozi5btWm4jq9N/qu8BCOA1f5gGjdWT8qr8uHXf76R17frzDG8D3DmQTnVEVsEBwY2lwEE0AhgdtnX3TUHTjq7rq4O7pTc2WNSYZSWHVVMhbXx6fOyp4ALcZhIgDrPmACq0w1lTvlMbRWnlb3YPn+8RnqsLKYEMJStrgKk/Kbyou/9VmWP1YsNF+bJfmc/27za/cqLLX8bgfJx2DjD/KbisMfYfMzzOZVGar9NoxK9GQGMv4A7LJ/iqvZP4vHla8NrqzxObhS0zEBpst3cTpG2o+3GwgACaAVQD3WYp4CbQNArYeqkceZhk4lo+inmIQng3U+/VPzurzreUs4mI1NmvZqtE3WSvkNNiZDvcK28+ONjAqd07WiROuuww44ePxn9s1JpZaYSAYltMFo4Va4WI4A+fBn/zkMnNg59biuAEj1b/irPoQTV5F3p7uSvnH6u4moof6xubZxdPosPy0YZf7kmMuTCxh3jwX9flcMwqboLOaziMKOFseNtuvps2dG+cGvLYrkLw/E/UgEDMDA0BhBAI4BqHEmdXQMYPpmrsH4bhrfvAVQ4u76w/H7yM3LmvX3rHgFUZ+k7UftnO2+VR1t1pqGg6Xu/jcWbGjGx8VWd+UTGrCzYDl95ja0rtJ244lZ5JCeKNxan4q4rn0/DhrMC58vfVgDLuipHt2x8MbEI827r237uUn4dF9aT9s+7tZLky1XUf6RNw/jFTVifPlzYViVP09PoOt6nGdah6q+JQ7ES5k3/2zSawuoYtogADMDAEBgYhQAOoaI3KQ9l51o/qrVJ5SGv3S+2pbStlwHJVUwAl92mpTi3K79uAHQjsey8EX93nqkz6gwGZhlAACMjgGMHpRwdqX9qdex1tO3lr0YBzTTrqstc5aGnB1La5l+jg+GoYex4jUSuQ1Jj+WHfbCdHnVAnMBBnAAFEAHnCDwaiDKxSbsrRvsPuKxdmVV66jML1dYGvytwgnZLT2PRyX3khnninRb1QLzDQDwMIIJ1/1eFyUvVzUm1TPRZCdGznJ/skSHaNYupz1ylRK1U+ztT6vGXWbzH1HTxws8z0iJtzDgZgYF0MIIAIIAIIAzAAAzAAAzAwMgYQwJE1+LruNEiXu1wYgAEYgAEYGA4DCCACyF0fDMAADMAADMDAyBhAAEfW4Nx9Defui7agLWAABmAABtbFAAKIAHLXBwMwAAMwAAMwMDIGEMCRNfi67jRIl7tcGIABGIABGBgOAwggAshdHwzAAAzAAAzAwMgYmFsAs+xcd+sTx4vfQM3zU+7QvTsvcMXwh2P4tAVtAQMwAAMwAAMwEDIwtwAqIokgEghcYoItLMAADMAADMDAsBlYWAB9A2fn3uqeOJ67U4fuZQh5ZEPInODDPsFpH9oHBmAABmAgxgACiLAh7TAAAzAAAzAAAyNjAAEcWYPH7gLYx90hDMAADMAADIyLAQQQAeSuDwZgAAZgAAZgYGQMIIAja3Du8MZ1h0d7094wAAMwAAMxBvoRwMkrYfI3X3SP3sDrYGIVzT5OQBiAARiAARiAgaEw0IsAqjB6GphXwgC4mGALCzAAAzAAAzAwPAZ6EcDqXYCMALKGgil1GIABGIABGICBwTPQjwC2fA9gdt797vk8d4wQDu9OgLsz2gQGYAAGYAAGxsPASgXw3FufcMfzvPj5uDdffNTdkLFekJNtPCcbbU1bwwAMwAAMDIWBlQpglp3n7n8eARxK45MPLkQwAAMwAAMwME4GViqAHrLz7n++GAHkZ+PGCRwXGtodBmAABmAABtbPwEoFsHpK+NQhdy/Tv4NfIMoJuv4TlDagDWAABmAABpbBQC8C6Ef16h7skPidOXPGMfIHyMsAmTjhCgZgAAZgAAbaMzC3AOrVL17q8vxN9+KjNzCixWPvMAADMAADMAADMLABDMwtgFh2e8umrqgrGIABGIABGICBITGAAG6ApQ8JGPLCBQwGYAAGYAAGNp8BBBABZKgeBmAABmAABmBgZAwggCNrcO7aNv+ujTakDWEABmAABhZlAAFEALnrgwEYgAEYgAEYGBkDCODIGnzROwaO564TBmAABmAABjafgf8fftuPK4EMhj8AAAAASUVORK5CYII=;" vertex="1" parent="1">
                    <mxGeometry x="240" y="150" width="290.25" height="200" as="geometry"/>
                </mxCell>
            </root>
        </mxGraphModel>
    </diagram>
</mxfile>